<mxfile host="Electron" agent="Mozilla/5.0 (Windows NT 10.0; Win64; x64) AppleWebKit/537.36 (KHTML, like Gecko) draw.io/27.0.9 Chrome/134.0.6998.205 Electron/35.4.0 Safari/537.36" version="27.0.9">
  <diagram name="Page-1" id="K5T1cxTVaPrBv8FxPGEp">
    <mxGraphModel dx="1303" dy="586" grid="1" gridSize="10" guides="1" tooltips="1" connect="1" arrows="1" fold="1" page="1" pageScale="1" pageWidth="850" pageHeight="1100" math="0" shadow="0">
      <root>
        <mxCell id="0" />
        <mxCell id="1" parent="0" />
        <mxCell id="VQzkuavS05OOovQm8NN1-64" value="" style="edgeStyle=orthogonalEdgeStyle;rounded=0;orthogonalLoop=1;jettySize=auto;html=1;entryX=0.5;entryY=0;entryDx=0;entryDy=0;" parent="1" target="VQzkuavS05OOovQm8NN1-8" edge="1">
          <mxGeometry relative="1" as="geometry">
            <mxPoint x="80" y="180" as="sourcePoint" />
            <mxPoint x="80" y="200" as="targetPoint" />
          </mxGeometry>
        </mxCell>
        <mxCell id="VQzkuavS05OOovQm8NN1-1" value="RESEARCHER" style="shape=umlActor;verticalLabelPosition=bottom;verticalAlign=top;html=1;outlineConnect=0;" parent="1" vertex="1">
          <mxGeometry x="65" y="100" width="30" height="60" as="geometry" />
        </mxCell>
        <mxCell id="VQzkuavS05OOovQm8NN1-30" value="" style="edgeStyle=orthogonalEdgeStyle;rounded=0;orthogonalLoop=1;jettySize=auto;html=1;" parent="1" target="VQzkuavS05OOovQm8NN1-29" edge="1">
          <mxGeometry relative="1" as="geometry">
            <mxPoint x="265" y="180" as="sourcePoint" />
          </mxGeometry>
        </mxCell>
        <mxCell id="VQzkuavS05OOovQm8NN1-43" value="" style="edgeStyle=orthogonalEdgeStyle;rounded=0;orthogonalLoop=1;jettySize=auto;html=1;entryX=1;entryY=0.5;entryDx=0;entryDy=0;dashed=1;endArrow=block;endFill=0;" parent="1" target="VQzkuavS05OOovQm8NN1-24" edge="1">
          <mxGeometry relative="1" as="geometry">
            <mxPoint x="240" y="130" as="sourcePoint" />
            <mxPoint x="180" y="480" as="targetPoint" />
            <Array as="points">
              <mxPoint x="180" y="130" />
              <mxPoint x="180" y="488" />
            </Array>
          </mxGeometry>
        </mxCell>
        <mxCell id="VQzkuavS05OOovQm8NN1-44" value="Check Website&amp;nbsp;&lt;div&gt;Updates&lt;/div&gt;" style="edgeLabel;html=1;align=center;verticalAlign=middle;resizable=0;points=[];" parent="VQzkuavS05OOovQm8NN1-43" vertex="1" connectable="0">
          <mxGeometry x="0.1849" y="2" relative="1" as="geometry">
            <mxPoint x="-2" y="-19" as="offset" />
          </mxGeometry>
        </mxCell>
        <mxCell id="A8isWfpHZSE4DEFEEHec-3" value="&amp;lt;&amp;lt;extends&amp;gt;&amp;gt;" style="edgeLabel;html=1;align=center;verticalAlign=middle;resizable=0;points=[];" vertex="1" connectable="0" parent="VQzkuavS05OOovQm8NN1-43">
          <mxGeometry x="-0.3254" y="1" relative="1" as="geometry">
            <mxPoint x="-1" as="offset" />
          </mxGeometry>
        </mxCell>
        <mxCell id="VQzkuavS05OOovQm8NN1-45" value="" style="edgeStyle=orthogonalEdgeStyle;rounded=0;orthogonalLoop=1;jettySize=auto;html=1;" parent="1" target="VQzkuavS05OOovQm8NN1-3" edge="1">
          <mxGeometry relative="1" as="geometry">
            <mxPoint x="290" y="130" as="sourcePoint" />
          </mxGeometry>
        </mxCell>
        <mxCell id="VQzkuavS05OOovQm8NN1-46" value="works on" style="edgeLabel;html=1;align=center;verticalAlign=middle;resizable=0;points=[];" parent="VQzkuavS05OOovQm8NN1-45" vertex="1" connectable="0">
          <mxGeometry x="-0.1826" y="-1" relative="1" as="geometry">
            <mxPoint x="13" y="-1" as="offset" />
          </mxGeometry>
        </mxCell>
        <mxCell id="VQzkuavS05OOovQm8NN1-2" value="DEVELOPER" style="shape=umlActor;verticalLabelPosition=bottom;verticalAlign=top;html=1;outlineConnect=0;" parent="1" vertex="1">
          <mxGeometry x="250" y="100" width="30" height="60" as="geometry" />
        </mxCell>
        <mxCell id="VQzkuavS05OOovQm8NN1-56" value="" style="edgeStyle=orthogonalEdgeStyle;rounded=0;orthogonalLoop=1;jettySize=auto;html=1;" parent="1" target="VQzkuavS05OOovQm8NN1-55" edge="1">
          <mxGeometry relative="1" as="geometry">
            <mxPoint x="425" y="180" as="sourcePoint" />
          </mxGeometry>
        </mxCell>
        <mxCell id="VQzkuavS05OOovQm8NN1-3" value="SYSTEM" style="shape=umlActor;verticalLabelPosition=bottom;verticalAlign=top;html=1;outlineConnect=0;" parent="1" vertex="1">
          <mxGeometry x="410" y="100" width="30" height="60" as="geometry" />
        </mxCell>
        <mxCell id="VQzkuavS05OOovQm8NN1-22" value="" style="edgeStyle=orthogonalEdgeStyle;rounded=0;orthogonalLoop=1;jettySize=auto;html=1;" parent="1" source="VQzkuavS05OOovQm8NN1-4" target="VQzkuavS05OOovQm8NN1-5" edge="1">
          <mxGeometry relative="1" as="geometry" />
        </mxCell>
        <mxCell id="VQzkuavS05OOovQm8NN1-4" value="Take Pictures" style="rounded=1;whiteSpace=wrap;html=1;" parent="1" vertex="1">
          <mxGeometry x="35" y="310" width="90" height="30" as="geometry" />
        </mxCell>
        <mxCell id="VQzkuavS05OOovQm8NN1-23" value="" style="edgeStyle=orthogonalEdgeStyle;rounded=0;orthogonalLoop=1;jettySize=auto;html=1;" parent="1" source="VQzkuavS05OOovQm8NN1-5" target="VQzkuavS05OOovQm8NN1-6" edge="1">
          <mxGeometry relative="1" as="geometry" />
        </mxCell>
        <mxCell id="VQzkuavS05OOovQm8NN1-5" value="Make Dermascopic Images" style="rounded=1;whiteSpace=wrap;html=1;" parent="1" vertex="1">
          <mxGeometry x="25" y="360" width="110" height="40" as="geometry" />
        </mxCell>
        <mxCell id="VQzkuavS05OOovQm8NN1-25" value="" style="edgeStyle=orthogonalEdgeStyle;rounded=0;orthogonalLoop=1;jettySize=auto;html=1;" parent="1" source="VQzkuavS05OOovQm8NN1-6" target="VQzkuavS05OOovQm8NN1-24" edge="1">
          <mxGeometry relative="1" as="geometry" />
        </mxCell>
        <mxCell id="VQzkuavS05OOovQm8NN1-6" value="Make Dataset" style="rounded=1;whiteSpace=wrap;html=1;" parent="1" vertex="1">
          <mxGeometry x="35" y="420" width="90" height="30" as="geometry" />
        </mxCell>
        <mxCell id="VQzkuavS05OOovQm8NN1-8" value="Analyze Patients" style="rounded=1;whiteSpace=wrap;html=1;" parent="1" vertex="1">
          <mxGeometry x="30" y="210" width="100" height="30" as="geometry" />
        </mxCell>
        <mxCell id="VQzkuavS05OOovQm8NN1-14" value="" style="edgeStyle=orthogonalEdgeStyle;rounded=0;orthogonalLoop=1;jettySize=auto;html=1;" parent="1" source="VQzkuavS05OOovQm8NN1-9" edge="1">
          <mxGeometry relative="1" as="geometry">
            <mxPoint x="80" y="310" as="targetPoint" />
          </mxGeometry>
        </mxCell>
        <mxCell id="VQzkuavS05OOovQm8NN1-9" value="Perform Cancer Test" style="rounded=1;whiteSpace=wrap;html=1;" parent="1" vertex="1">
          <mxGeometry x="15" y="260" width="130" height="30" as="geometry" />
        </mxCell>
        <mxCell id="VQzkuavS05OOovQm8NN1-16" value="" style="endArrow=classic;html=1;rounded=0;exitX=0.5;exitY=1;exitDx=0;exitDy=0;entryX=0.5;entryY=0;entryDx=0;entryDy=0;" parent="1" source="VQzkuavS05OOovQm8NN1-8" target="VQzkuavS05OOovQm8NN1-9" edge="1">
          <mxGeometry width="50" height="50" relative="1" as="geometry">
            <mxPoint x="400" y="370" as="sourcePoint" />
            <mxPoint x="450" y="320" as="targetPoint" />
          </mxGeometry>
        </mxCell>
        <mxCell id="VQzkuavS05OOovQm8NN1-27" value="" style="edgeStyle=orthogonalEdgeStyle;rounded=0;orthogonalLoop=1;jettySize=auto;html=1;endArrow=block;endFill=1;dashed=1;" parent="1" source="VQzkuavS05OOovQm8NN1-24" target="VQzkuavS05OOovQm8NN1-26" edge="1">
          <mxGeometry relative="1" as="geometry" />
        </mxCell>
        <mxCell id="A8isWfpHZSE4DEFEEHec-4" value="&amp;lt;&amp;lt;includes&amp;gt;&amp;gt;" style="edgeLabel;html=1;align=center;verticalAlign=middle;resizable=0;points=[];" vertex="1" connectable="0" parent="VQzkuavS05OOovQm8NN1-27">
          <mxGeometry x="-0.1556" y="3" relative="1" as="geometry">
            <mxPoint x="-3" y="-4" as="offset" />
          </mxGeometry>
        </mxCell>
        <mxCell id="VQzkuavS05OOovQm8NN1-24" value="Upload Data on Website" style="whiteSpace=wrap;html=1;rounded=1;" parent="1" vertex="1">
          <mxGeometry x="25" y="470" width="110" height="35" as="geometry" />
        </mxCell>
        <mxCell id="VQzkuavS05OOovQm8NN1-70" value="" style="edgeStyle=orthogonalEdgeStyle;rounded=0;orthogonalLoop=1;jettySize=auto;html=1;" parent="1" source="VQzkuavS05OOovQm8NN1-26" target="VQzkuavS05OOovQm8NN1-69" edge="1">
          <mxGeometry relative="1" as="geometry" />
        </mxCell>
        <mxCell id="VQzkuavS05OOovQm8NN1-26" value="Make Competition and Wining Prize" style="whiteSpace=wrap;html=1;rounded=1;" parent="1" vertex="1">
          <mxGeometry x="20" y="550" width="120" height="37.5" as="geometry" />
        </mxCell>
        <mxCell id="VQzkuavS05OOovQm8NN1-32" value="" style="edgeStyle=orthogonalEdgeStyle;rounded=0;orthogonalLoop=1;jettySize=auto;html=1;" parent="1" source="VQzkuavS05OOovQm8NN1-29" target="VQzkuavS05OOovQm8NN1-31" edge="1">
          <mxGeometry relative="1" as="geometry" />
        </mxCell>
        <mxCell id="VQzkuavS05OOovQm8NN1-29" value="Take Dataset" style="rounded=1;whiteSpace=wrap;html=1;verticalAlign=top;" parent="1" vertex="1">
          <mxGeometry x="222.5" y="210" width="85" height="30" as="geometry" />
        </mxCell>
        <mxCell id="VQzkuavS05OOovQm8NN1-34" value="" style="edgeStyle=orthogonalEdgeStyle;rounded=0;orthogonalLoop=1;jettySize=auto;html=1;" parent="1" source="VQzkuavS05OOovQm8NN1-31" target="VQzkuavS05OOovQm8NN1-33" edge="1">
          <mxGeometry relative="1" as="geometry" />
        </mxCell>
        <mxCell id="VQzkuavS05OOovQm8NN1-35" value="Pre processing" style="edgeLabel;html=1;align=center;verticalAlign=middle;resizable=0;points=[];" parent="VQzkuavS05OOovQm8NN1-34" vertex="1" connectable="0">
          <mxGeometry x="-0.0222" y="3" relative="1" as="geometry">
            <mxPoint x="-3" y="-2" as="offset" />
          </mxGeometry>
        </mxCell>
        <mxCell id="VQzkuavS05OOovQm8NN1-31" value="Load Dataset" style="whiteSpace=wrap;html=1;verticalAlign=top;rounded=1;" parent="1" vertex="1">
          <mxGeometry x="217.5" y="260" width="95" height="30" as="geometry" />
        </mxCell>
        <mxCell id="VQzkuavS05OOovQm8NN1-37" value="" style="edgeStyle=orthogonalEdgeStyle;rounded=0;orthogonalLoop=1;jettySize=auto;html=1;" parent="1" source="VQzkuavS05OOovQm8NN1-33" target="VQzkuavS05OOovQm8NN1-36" edge="1">
          <mxGeometry relative="1" as="geometry" />
        </mxCell>
        <mxCell id="VQzkuavS05OOovQm8NN1-33" value="Train Model" style="whiteSpace=wrap;html=1;verticalAlign=top;rounded=1;" parent="1" vertex="1">
          <mxGeometry x="222.5" y="335" width="85" height="25" as="geometry" />
        </mxCell>
        <mxCell id="VQzkuavS05OOovQm8NN1-39" value="" style="edgeStyle=orthogonalEdgeStyle;rounded=0;orthogonalLoop=1;jettySize=auto;html=1;" parent="1" source="VQzkuavS05OOovQm8NN1-36" target="VQzkuavS05OOovQm8NN1-38" edge="1">
          <mxGeometry relative="1" as="geometry" />
        </mxCell>
        <mxCell id="VQzkuavS05OOovQm8NN1-36" value="Tune&amp;nbsp;&lt;div&gt;Hyperparams&lt;/div&gt;" style="whiteSpace=wrap;html=1;verticalAlign=top;rounded=1;" parent="1" vertex="1">
          <mxGeometry x="218.75" y="382.5" width="92.5" height="37.5" as="geometry" />
        </mxCell>
        <mxCell id="VQzkuavS05OOovQm8NN1-41" value="" style="edgeStyle=orthogonalEdgeStyle;rounded=0;orthogonalLoop=1;jettySize=auto;html=1;" parent="1" source="VQzkuavS05OOovQm8NN1-38" target="VQzkuavS05OOovQm8NN1-40" edge="1">
          <mxGeometry relative="1" as="geometry" />
        </mxCell>
        <mxCell id="VQzkuavS05OOovQm8NN1-38" value="Validate&amp;nbsp;Model" style="whiteSpace=wrap;html=1;verticalAlign=top;rounded=1;" parent="1" vertex="1">
          <mxGeometry x="217.5" y="440" width="95" height="21.25" as="geometry" />
        </mxCell>
        <mxCell id="VQzkuavS05OOovQm8NN1-66" value="" style="edgeStyle=orthogonalEdgeStyle;rounded=0;orthogonalLoop=1;jettySize=auto;html=1;" parent="1" source="VQzkuavS05OOovQm8NN1-40" edge="1">
          <mxGeometry relative="1" as="geometry">
            <mxPoint x="140" y="580" as="targetPoint" />
            <Array as="points">
              <mxPoint x="270" y="580" />
            </Array>
          </mxGeometry>
        </mxCell>
        <mxCell id="VQzkuavS05OOovQm8NN1-67" value="Submit Model" style="edgeLabel;html=1;align=center;verticalAlign=middle;resizable=0;points=[];" parent="VQzkuavS05OOovQm8NN1-66" vertex="1" connectable="0">
          <mxGeometry x="-0.0256" relative="1" as="geometry">
            <mxPoint x="-30" as="offset" />
          </mxGeometry>
        </mxCell>
        <mxCell id="VQzkuavS05OOovQm8NN1-40" value="Save Model" style="whiteSpace=wrap;html=1;verticalAlign=top;rounded=1;" parent="1" vertex="1">
          <mxGeometry x="222.5" y="476.87" width="85" height="23.13" as="geometry" />
        </mxCell>
        <mxCell id="VQzkuavS05OOovQm8NN1-52" value="" style="edgeStyle=orthogonalEdgeStyle;rounded=0;orthogonalLoop=1;jettySize=auto;html=1;" parent="1" source="VQzkuavS05OOovQm8NN1-47" target="VQzkuavS05OOovQm8NN1-51" edge="1">
          <mxGeometry relative="1" as="geometry" />
        </mxCell>
        <mxCell id="VQzkuavS05OOovQm8NN1-53" value="Post processing" style="edgeLabel;html=1;align=center;verticalAlign=middle;resizable=0;points=[];" parent="VQzkuavS05OOovQm8NN1-52" vertex="1" connectable="0">
          <mxGeometry x="-0.165" y="-4" relative="1" as="geometry">
            <mxPoint x="4" y="-1" as="offset" />
          </mxGeometry>
        </mxCell>
        <mxCell id="VQzkuavS05OOovQm8NN1-47" value="Load&amp;nbsp;&lt;div&gt;Trained&amp;nbsp;&lt;span style=&quot;background-color: transparent; color: light-dark(rgb(0, 0, 0), rgb(255, 255, 255));&quot;&gt;Dataset&lt;/span&gt;&lt;/div&gt;" style="rounded=1;whiteSpace=wrap;html=1;verticalAlign=top;" parent="1" vertex="1">
          <mxGeometry x="378" y="320" width="95" height="40" as="geometry" />
        </mxCell>
        <mxCell id="VQzkuavS05OOovQm8NN1-60" value="" style="edgeStyle=orthogonalEdgeStyle;rounded=0;orthogonalLoop=1;jettySize=auto;html=1;" parent="1" source="VQzkuavS05OOovQm8NN1-51" target="VQzkuavS05OOovQm8NN1-59" edge="1">
          <mxGeometry relative="1" as="geometry" />
        </mxCell>
        <mxCell id="VQzkuavS05OOovQm8NN1-51" value="Display&amp;nbsp;Output" style="whiteSpace=wrap;html=1;verticalAlign=top;rounded=1;" parent="1" vertex="1">
          <mxGeometry x="378" y="400" width="95.5" height="30" as="geometry" />
        </mxCell>
        <mxCell id="VQzkuavS05OOovQm8NN1-58" value="" style="edgeStyle=orthogonalEdgeStyle;rounded=0;orthogonalLoop=1;jettySize=auto;html=1;" parent="1" source="VQzkuavS05OOovQm8NN1-55" target="VQzkuavS05OOovQm8NN1-57" edge="1">
          <mxGeometry relative="1" as="geometry" />
        </mxCell>
        <mxCell id="VQzkuavS05OOovQm8NN1-55" value="Input Images" style="rounded=1;whiteSpace=wrap;html=1;verticalAlign=top;" parent="1" vertex="1">
          <mxGeometry x="383" y="210" width="85" height="30" as="geometry" />
        </mxCell>
        <mxCell id="VQzkuavS05OOovQm8NN1-63" value="" style="edgeStyle=orthogonalEdgeStyle;rounded=0;orthogonalLoop=1;jettySize=auto;html=1;entryX=0.5;entryY=0;entryDx=0;entryDy=0;" parent="1" source="VQzkuavS05OOovQm8NN1-57" target="VQzkuavS05OOovQm8NN1-47" edge="1">
          <mxGeometry relative="1" as="geometry">
            <mxPoint x="425.5" y="362.5" as="targetPoint" />
          </mxGeometry>
        </mxCell>
        <mxCell id="VQzkuavS05OOovQm8NN1-57" value="Predict Lession Boundary" style="rounded=1;whiteSpace=wrap;html=1;verticalAlign=top;" parent="1" vertex="1">
          <mxGeometry x="365.5" y="260" width="120" height="35" as="geometry" />
        </mxCell>
        <mxCell id="VQzkuavS05OOovQm8NN1-59" value="Saved" style="rounded=1;whiteSpace=wrap;html=1;verticalAlign=top;" parent="1" vertex="1">
          <mxGeometry x="393.38" y="450" width="64.75" height="25" as="geometry" />
        </mxCell>
        <mxCell id="VQzkuavS05OOovQm8NN1-72" value="" style="edgeStyle=orthogonalEdgeStyle;rounded=0;orthogonalLoop=1;jettySize=auto;html=1;endArrow=block;endFill=0;dashed=1;" parent="1" source="VQzkuavS05OOovQm8NN1-69" target="VQzkuavS05OOovQm8NN1-2" edge="1">
          <mxGeometry relative="1" as="geometry">
            <mxPoint x="200" y="600" as="targetPoint" />
            <Array as="points">
              <mxPoint x="350" y="630" />
              <mxPoint x="350" y="150" />
            </Array>
          </mxGeometry>
        </mxCell>
        <mxCell id="VQzkuavS05OOovQm8NN1-73" value="Reward $$$" style="edgeLabel;html=1;align=center;verticalAlign=middle;resizable=0;points=[];" parent="VQzkuavS05OOovQm8NN1-72" vertex="1" connectable="0">
          <mxGeometry x="-0.6514" y="1" relative="1" as="geometry">
            <mxPoint x="91" y="-69" as="offset" />
          </mxGeometry>
        </mxCell>
        <mxCell id="A8isWfpHZSE4DEFEEHec-5" value="&amp;lt;&amp;lt;extends&amp;gt;&amp;gt;" style="edgeLabel;html=1;align=center;verticalAlign=middle;resizable=0;points=[];" vertex="1" connectable="0" parent="VQzkuavS05OOovQm8NN1-72">
          <mxGeometry x="-0.5714" y="-2" relative="1" as="geometry">
            <mxPoint x="-25" y="-2" as="offset" />
          </mxGeometry>
        </mxCell>
        <mxCell id="VQzkuavS05OOovQm8NN1-69" value="Requirements are met" style="whiteSpace=wrap;html=1;rounded=1;" parent="1" vertex="1">
          <mxGeometry x="30" y="610" width="100" height="40" as="geometry" />
        </mxCell>
        <mxCell id="VQzkuavS05OOovQm8NN1-74" value="USE CASE DIAGRAM" style="text;html=1;align=center;verticalAlign=middle;resizable=0;points=[];autosize=1;strokeColor=none;fillColor=none;" parent="1" vertex="1">
          <mxGeometry x="190" y="60" width="140" height="30" as="geometry" />
        </mxCell>
      </root>
    </mxGraphModel>
  </diagram>
</mxfile>
